<?xml version="1.0" encoding="UTF-8" standalone="no"?>
<svg width="32px" height="32px" viewBox="0 0 32 32" version="1.1" xmlns="http://www.w3.org/2000/svg" xmlns:xlink="http://www.w3.org/1999/xlink" xmlns:sketch="http://www.bohemiancoding.com/sketch/ns">
    <!-- Generator: Sketch 3.2.2 (9983) - http://www.bohemiancoding.com/sketch -->
    <title>Leaf</title>
    <desc>Created with Sketch.</desc>
    <defs>
        <path id="path-1" d="M15.9995454,4 L13.9909649,7.61957205 C13.7630487,8.01295929 13.3546918,7.97647189 12.9463342,7.75675278 L11.4921755,7.02922468 L12.5759826,12.5888114 C12.8038988,13.6045164 12.0726416,13.6045164 11.7117625,13.1653433 L9.17397271,10.4203981 L8.76196698,11.8143465 C8.71445553,11.9974019 8.50555576,12.1896676 8.19215695,12.1438817 L4.98309274,11.4919851 L5.82597407,14.4527531 C6.00641242,15.1115571 6.14715858,15.3843246 5.64381407,15.5580809 L4.5,16.0774906 L10.0241964,20.4129007 C10.2428473,20.5768266 10.3533185,20.8718234 10.2754774,21.1389224 L9.7919925,22.6719113 C11.694055,22.4600735 13.3983324,22.1413689 15.3013582,21.945088 C15.4693564,21.9277602 15.7506055,22.1956312 15.7494521,22.3837343 L15.4974315,28 L16.4222238,28 L16.2766506,22.3957788 C16.2754907,22.2076757 16.5306425,21.9277602 16.6986406,21.945088 C18.6016664,22.1413695 20.3059462,22.4600735 22.2080081,22.6719113 L21.7245244,21.1389224 C21.6466833,20.8718234 21.7571539,20.5768266 21.9758048,20.4129007 L27.5,16.0774906 L26.3561871,15.5580809 C25.8528414,15.3843246 25.9935876,15.1115571 26.1740259,14.4527531 L27.016909,11.4919851 L23.807843,12.1438817 C23.4944442,12.1896676 23.2855445,11.9974019 23.2380318,11.8143465 L22.8260267,10.4203981 L20.2882381,13.1653433 C19.9273578,13.6045164 19.1961,13.6045164 19.4240163,12.5888114 L20.5078216,7.02922468 L19.0536658,7.75675278 C18.6452982,7.97647189 18.2369513,8.01295929 18.0090345,7.61957205 L15.9995454,4 Z"></path>
    </defs>
    <g id="v2" stroke="none" stroke-width="1" fill="none" fill-rule="evenodd" sketch:type="MSPage">
        <g id="iPhone-5" sketch:type="MSArtboardGroup" transform="translate(-304.000000, -248.000000)">
            <g id="Header" sketch:type="MSLayerGroup" transform="translate(47.000000, 27.000000)">
                <g id="Rule" transform="translate(0.000000, 221.000000)">
                    <g id="Leaf" transform="translate(257.000000, 0.000000)">
                        <circle id="Oval-1" fill-opacity="0.9" fill="#FFFFFF" sketch:type="MSShapeGroup" cx="16" cy="16" r="16"></circle>
                        <g opacity="0.9">
                            <use fill="none" sketch:type="MSShapeGroup" xlink:href="#path-1"></use>
                            <use fill="none" xlink:href="#path-1"></use>
                            <use fill="#C2554F" fill-rule="evenodd" xlink:href="#path-1"></use>
                        </g>
                    </g>
                </g>
            </g>
        </g>
    </g>
</svg>