<?xml version="1.0" encoding="UTF-8"?>
<svg width="1322px" height="315px" viewBox="0 0 1322 315" version="1.1" xmlns="http://www.w3.org/2000/svg" xmlns:xlink="http://www.w3.org/1999/xlink">
    <!-- Generator: Sketch 56.3 (81716) - https://sketch.com -->
    <title>mr-darcy-murphy</title>
    <desc>Created with Sketch.</desc>
    <defs>
        <path d="M107.080929,177.845595 C104.692512,174.590108 98.8328497,170.250117 90.1526964,166.344048 C91.672024,166.778142 92.5402112,162.437206 92.5402112,162.003112 C94.7106792,153.104193 102.958458,127.275623 106.21416,109.260739 C92.9743048,133.787027 72.5719053,168.297469 60.4172843,189.568056 C65.6264075,182.839605 78.2151222,179.366856 81.687871,179.366856 L96.8811473,184.141886 C78.6492158,184.141886 58.8979566,199.986303 42.4023995,230.372855 C41.7512591,231.458089 41.9683059,231.458089 41.3171655,230.155808 C37.8444167,224.078498 33.2864338,216.698906 22,208.017034 C22,208.017034 24.8216084,206.497707 25.2557021,205.629519 C32.4182466,193.908992 82.773105,110.780066 105.345973,61.293395 C107.082347,57.3865525 107.516441,54.5649441 105.563019,51.309242 L110.555096,54.5649441 C111.64033,41.5421358 112.074424,31.3409361 110.772143,27 C119.019921,35.0307317 128.135887,35.898919 136.166619,39.3716678 C136.817759,39.5887146 137.902993,40.239855 138.77118,40.4569018 C138.554134,40.6739486 137.034806,41.9762295 136.817759,43.0614635 C136.600712,60.208161 119.236968,119.896032 112.29147,151.801912 C140.724602,118.810798 182.397588,43.9296507 183.482822,28.7363744 C192.164694,39.5887146 200.412473,43.9296507 207.575017,46.9683059 C207.575017,47.1853527 204.753409,50.0069612 204.319315,51.0921952 C203.451128,53.9138037 201.714753,57.1695057 199.544285,60.8593014 C203.234081,60.4252078 207.575017,59.7740674 211.698906,59.3399738 C208.877298,61.0763482 206.272736,65.2002375 204.536362,68.0218459 L135.081385,191.955571 C151.142848,180.235043 168.289546,169.382703 170.02592,169.816797 L182.180541,171.336124 C163.731563,178.064575 130.957495,211.489783 118.585828,226.248966 C115.981266,229.504668 114.461938,231.241042 113.810798,230.806949 L113.376704,230.589902 L102.524364,221.256889 C98.4004749,218.001187 94.927726,217.78414 94.927726,217.78414 C97.7493345,214.962532 99.0516153,212.792064 101.005037,209.319315 L144.19735,130.748372 C129.004074,147.89507 115.764219,162.003112 111.857377,166.344048 C106.79007,172.044768 107.062894,177.745487 107.081504,177.851865 L107.080929,177.845595 Z M184.133962,139.430244 C188.908992,130.965419 182.831682,127.058577 182.831682,127.058577 C201.063613,127.926764 213.869374,121.41536 215.388702,120.547172 C208.443204,132.91884 202.148847,143.77118 195.85449,154.623521 C207.140924,142.034806 221.031919,127.275623 224.504668,124.888108 L232.969493,127.49267 C240.566131,130.531325 246.209348,130.097232 253.58894,124.454015 C254.457127,123.802874 253.154846,125.322202 252.503706,125.973342 C243.604787,141.383666 227.76037,164.390627 218.427357,181.103231 C219.512591,183.490745 220.597825,185.661214 220.814872,185.444167 C222.98534,183.490745 244.255927,170.684984 248.379816,168.514516 L256.193501,169.59975 C247.077535,176.328201 236.008148,184.575979 227.977417,192.606711 C227.543323,193.257852 226.675136,193.908992 226.023995,194.560132 L210.396626,194.343086 L199.978379,174.157733 C208.660251,167.863376 220.380779,143.77118 224.070574,135.523402 C224.287621,135.306355 224.070574,135.089308 224.287621,134.872261 L223.202387,135.523402 C203.234081,155.057614 186.521477,177.196388 170.677061,199.769256 L160.041767,218.435281 L171.328201,211.272736 L177.188465,211.272736 C166.119078,222.55917 160.475861,230.372855 160.041767,229.070574 L145.933725,205.846566 C158.739486,183.707792 171.545248,161.569018 184.133962,139.430244 Z M236.659289,203.024958 L258.146922,203.024958 C253.154846,211.923877 250.767331,221.473936 243.38774,229.287621 L222.117153,229.287621 C231.233119,218.652328 233.83768,209.102268 236.659289,203.024958 Z M475.844867,152.670099 L445.458314,206.497707 C445.458314,206.497707 415.071762,213.660251 390.545473,227.117153 C390.545473,227.117153 376.220384,204.978379 354.73275,187.397588 C347.353159,181.320277 343.446316,176.762295 333.67921,172.638405 L334.330351,172.204312 C346.702018,160.917878 360.810061,154.189427 378.173805,153.97238 C397.056877,120.764219 415.288808,89.5094795 434.823021,56.0842717 C435.257114,55.4331313 435.257114,54.5649441 434.823021,53.6967569 C417.025183,51.9603824 395.537549,56.7354121 378.173805,66.2854715 C377.522664,58.4717865 373.398775,46.9683059 362.980529,36.3330126 C430.047991,16.3647066 504.060951,45.8830719 493.208611,107.524364 C490.604049,122.71764 483.658552,138.562057 475.844867,152.670099 Z M352.128188,174.37478 L361.461201,182.622558 C363.631669,178.932763 366.236231,175.242967 367.972605,171.553171 C361.895295,171.553171 356.469125,172.638405 352.128188,174.37478 Z M390.76252,206.714753 L422.017259,198.466975 L447.628782,155.491708 C456.310654,142.251853 465.209573,124.454015 469.984603,106.222083 C476.061913,83.6492158 469.550509,69.1070799 457.612935,61.0763482 L403.351234,157.445129 C409.862638,159.181503 416.808136,161.569018 424.187727,164.82472 L411.599013,191.955571 C405.087609,185.444167 398.359158,180.886184 392.0648,177.630482 L380.344273,198.032881 L390.76252,206.714753 Z M495.813173,126.624483 C515.347385,127.709717 528.58724,120.113079 528.58724,120.113079 C539.43958,127.709717 551.594201,132.701793 562.880635,124.019921 C563.748822,123.585828 562.229494,124.888108 561.795401,125.756296 C550.726014,144.422321 521.641742,194.126039 514.262151,209.970456 C529.021333,187.831682 557.888558,168.297469 557.888558,168.297469 L565.91929,169.165656 C534.230457,192.606711 510.789402,231.023995 509.704168,228.853527 L496.464313,206.714753 C481.70513,218.001187 475.410773,232.76037 473.023258,228.853527 L459.132263,205.629519 L496.898407,138.996151 C501.673436,130.748372 495.813173,126.624483 495.813173,126.624483 Z M501.456389,195.42832 L533.579316,138.996151 C534.230457,137.910917 534.447504,136.608636 534.881597,135.306355 C529.021333,132.2677 523.16107,129.229045 522.509929,130.531325 C509.921215,152.018959 484.309692,195.862413 477.364194,210.621596 C484.960832,202.807911 493.642704,198.249928 501.456389,195.42832 Z M568.957945,139.430244 C573.732975,130.965419 567.655665,127.058577 567.655665,127.058577 C585.887596,127.926764 598.693357,121.41536 600.212685,120.547172 C593.267187,132.91884 586.97283,143.77118 580.678473,154.623521 C591.964907,142.034806 605.855902,127.275623 609.328651,124.888108 L617.793476,127.49267 C625.390114,130.531325 631.033331,130.097232 638.412923,124.454015 C639.28111,123.802874 637.978829,125.322202 637.327689,125.973342 C628.42877,141.383666 612.584353,164.390627 603.25134,181.103231 C604.336574,183.490745 605.421808,185.661214 605.638855,185.444167 C607.809323,183.490745 629.07991,170.684984 633.203799,168.514516 L641.017484,169.59975 C631.901518,176.328201 620.832131,184.575979 612.8014,192.606711 C612.367306,193.257852 611.499119,193.908992 610.847978,194.560132 L595.220609,194.343086 L584.802362,174.157733 C593.484234,167.863376 605.204762,143.77118 608.894557,135.523402 C609.111604,135.306355 608.894557,135.089308 609.111604,134.872261 L608.02637,135.523402 C588.058064,155.057614 571.34546,177.196388 555.501044,199.769256 L544.86575,218.435281 L556.152184,211.272736 L562.012448,211.272736 C550.943061,222.55917 545.299844,230.372855 544.86575,229.070574 L530.757708,205.846566 C543.563469,183.707792 556.369231,161.569018 568.957945,139.430244 Z M672.597794,120.221602 L672.489271,120.113079 L672.597794,120.221602 Z M672.597794,120.221602 L672.706318,120.330126 L672.706318,120.113079 C672.706318,120.113079 672.706318,120.330126 672.923364,120.330126 C683.558658,127.709717 692.023483,132.701793 703.09287,124.019921 C703.961057,123.585828 702.658776,124.888108 702.224683,125.756296 C696.581466,135.306355 681.605236,161.351971 671.83813,178.498669 C667.714241,173.940686 663.590352,169.382703 659.249416,164.82472 L665.326726,153.97238 L673.791552,138.996151 C674.659739,137.910917 675.093832,136.391589 675.093832,135.089308 C669.667662,132.050653 667.497194,129.229045 666.629007,130.531325 C654.90848,150.499631 643.622046,170.467937 632.552659,190.436243 L640.149297,206.063613 C659.249416,189.785103 679.000675,181.537324 698.31784,168.297469 L706.348572,169.165656 C706.131525,169.382703 702.44173,172.855452 698.100794,176.111154 C674.659739,193.908992 647.094795,212.140924 629.73105,229.504668 L610.413885,193.474898 C620.832131,175.242967 630.599238,157.445129 641.234531,138.996151 C645.792514,130.748372 639.93225,126.624483 639.93225,126.624483 C658.164182,127.709717 670.969943,121.198313 672.706318,120.330126 L672.597794,120.221602 Z M713.511117,195.645366 C726.533925,172.638405 739.77378,150.065538 752.145448,126.84153 C759.525039,129.880185 767.555771,130.097232 774.718315,124.454015 C775.586503,123.802874 774.284222,125.322202 773.850128,125.973342 C758.439805,152.236006 731.091908,200.85449 718.286146,226.031919 L698.100794,264.66625 C684.643892,274.433356 671.18699,284.634556 661.419884,294.401662 L642.102718,258.371893 L643.839093,255.550284 C648.614122,247.302506 642.319765,243.178617 642.319765,243.178617 C661.853977,244.263851 675.310879,236.667212 675.310879,236.667212 L659.032369,265.968531 L666.41196,280.94476 L706.348572,208.885222 C693.108717,219.737562 687.248453,232.76037 685.077985,229.070574 L670.969943,205.846566 L708.953134,139.430244 C713.94521,130.965419 707.8679,127.058577 707.8679,127.058577 C727.402112,128.143811 740.42492,120.547172 740.42492,120.547172 L689.418921,210.838643 C697.01556,203.242005 705.480385,198.466975 713.511117,195.645366 Z M866.961788,177.845595 C864.573371,174.590108 858.713709,170.250117 850.033556,166.344048 C851.552884,166.778142 852.421071,162.437206 852.421071,162.003112 C854.591539,153.104193 862.839318,127.275623 866.09502,109.260739 C852.855165,133.787027 832.452765,168.297469 820.298144,189.568056 C825.507267,182.839605 838.095982,179.366856 841.568731,179.366856 L856.762007,184.141886 C838.530076,184.141886 818.778816,199.986303 802.283259,230.372855 C801.632119,231.458089 801.849166,231.458089 801.198025,230.155808 C797.725276,224.078498 793.167294,216.698906 781.88086,208.017034 C781.88086,208.017034 784.702468,206.497707 785.136562,205.629519 C792.299106,193.908992 842.653965,110.780066 865.226832,61.293395 C866.963207,57.3865525 867.3973,54.5649441 865.443879,51.309242 L870.435956,54.5649441 C871.52119,41.5421358 871.955283,31.3409361 870.653003,27 C878.900781,35.0307317 888.016747,35.898919 896.047479,39.3716678 C896.698619,39.5887146 897.783853,40.239855 898.65204,40.4569018 C898.434993,40.6739486 896.915666,41.9762295 896.698619,43.0614635 C896.481572,60.208161 879.117828,119.896032 872.17233,151.801912 C900.605461,118.810798 942.278448,43.9296507 943.363682,28.7363744 C952.045554,39.5887146 960.293332,43.9296507 967.455877,46.9683059 C967.455877,47.1853527 964.634269,50.0069612 964.200175,51.0921952 C963.331988,53.9138037 961.595613,57.1695057 959.425145,60.8593014 C963.114941,60.4252078 967.455877,59.7740674 971.579766,59.3399738 C968.758158,61.0763482 966.153596,65.2002375 964.417222,68.0218459 L894.962245,191.955571 C911.023708,180.235043 928.170406,169.382703 929.90678,169.816797 L942.061401,171.336124 C923.612423,178.064575 890.838355,211.489783 878.466687,226.248966 C875.862126,229.504668 874.342798,231.241042 873.691658,230.806949 L873.257564,230.589902 L862.405224,221.256889 C858.281335,218.001187 854.808586,217.78414 854.808586,217.78414 C857.630194,214.962532 858.932475,212.792064 860.885896,209.319315 L904.07821,130.748372 C888.884934,147.89507 875.645079,162.003112 871.738237,166.344048 C866.67093,172.044768 866.943753,177.745487 866.962364,177.851865 L866.961788,177.845595 Z M948.138711,195.645366 C960.076286,174.157733 972.447953,153.104193 984.385528,131.182466 L986.555996,126.84153 C994.152634,129.880185 1001.96632,130.097232 1009.34591,124.454015 C1010.2141,123.802874 1008.69477,125.322202 1008.26068,125.973342 C997.408336,144.639368 968.324064,194.343086 960.727426,210.404549 C975.703656,188.048728 1004.57088,168.514516 1004.57088,168.514516 L1012.38457,169.59975 C980.695732,193.040805 957.254677,231.458089 955.952396,229.070574 L942.929588,207.148847 C928.387452,218.218234 921.876048,232.977417 919.488533,229.070574 L905.597538,205.846566 L943.363682,139.430244 C948.355758,130.965419 942.278448,127.058577 942.278448,127.058577 C961.81266,128.143811 975.052515,120.547172 975.052515,120.547172 L968.975205,130.748372 L968.975205,130.965419 C967.672924,133.135887 966.153596,135.523402 964.634269,138.127964 L964.634269,138.34501 C964.634269,138.34501 928.170406,201.722677 924.046516,210.838643 C931.426108,203.242005 940.10798,198.466975 948.138711,195.645366 Z M1016.29141,139.430244 C1021.06644,130.965419 1014.98913,127.058577 1014.98913,127.058577 C1033.22106,127.926764 1046.02682,121.41536 1047.54615,120.547172 C1040.60065,132.91884 1034.30629,143.77118 1028.01194,154.623521 C1039.29837,142.034806 1053.18936,127.275623 1056.66211,124.888108 L1065.12694,127.49267 C1072.72358,130.531325 1078.36679,130.097232 1085.74639,124.454015 C1086.61457,123.802874 1085.31229,125.322202 1084.66115,125.973342 C1075.76223,141.383666 1059.91782,164.390627 1050.5848,181.103231 C1051.67004,183.490745 1052.75527,185.661214 1052.97232,185.444167 C1055.14279,183.490745 1076.41337,170.684984 1080.53726,168.514516 L1088.35095,169.59975 C1079.23498,176.328201 1068.16559,184.575979 1060.13486,192.606711 C1059.70077,193.257852 1058.83258,193.908992 1058.18144,194.560132 L1042.55407,194.343086 L1032.13582,174.157733 C1040.8177,167.863376 1052.53822,143.77118 1056.22802,135.523402 C1056.44507,135.306355 1056.22802,135.089308 1056.44507,134.872261 L1055.35983,135.523402 C1035.39153,155.057614 1018.67892,177.196388 1002.83451,199.769256 L992.199213,218.435281 L1003.48565,211.272736 L1009.34591,211.272736 C998.276523,222.55917 992.633306,230.372855 992.199213,229.070574 L978.09117,205.846566 C990.896932,183.707792 1003.70269,161.569018 1016.29141,139.430244 Z M1019.33006,261.844642 L1089.00209,139.864338 C1093.99416,131.182466 1087.69981,127.058577 1087.69981,127.058577 C1107.88516,128.143811 1121.55911,120.330126 1121.55911,120.330126 L1109.62153,141.383666 C1121.12501,131.616559 1131.32621,124.454015 1131.32621,124.454015 C1139.79104,129.011998 1149.77519,127.926764 1156.06955,124.236968 C1156.06955,124.236968 1132.41145,164.17358 1117.43522,191.30443 C1125.2489,187.397588 1132.41145,183.056652 1137.83762,178.498669 C1145.43426,172.204312 1151.29452,168.297469 1151.29452,168.297469 L1159.32525,169.382703 C1151.94566,174.591827 1145.43426,180.45209 1139.35695,186.312354 C1132.41145,193.040805 1121.77615,198.466975 1111.35791,202.373817 L1107.66811,210.404549 L1091.3896,222.125077 L1075.97928,206.28066 L1078.36679,202.807911 C1078.58384,202.373817 1087.91685,201.50563 1093.99416,198.249928 L1126.76823,139.213198 C1127.20232,138.127964 1127.85346,136.825683 1127.85346,135.523402 L1127.85346,135.306355 C1113.74542,146.809836 1101.5908,160.266737 1093.12598,170.25089 L1027.36079,287.022071 L1014.12094,257.937799 L1019.33006,261.844642 Z M1121.55911,209.536362 L1187.75838,91.8969943 L1206.64145,58.0376929 C1226.39271,59.1229269 1235.50868,54.5649441 1235.50868,54.5649441 C1228.34614,61.5104418 1227.47795,59.9911142 1222.48587,68.6729863 L1209.46306,91.8969943 L1181.46403,141.166619 C1192.96751,131.399513 1203.16871,124.236968 1203.16871,124.236968 C1211.41648,128.794951 1221.83473,127.709717 1227.69499,124.019921 C1227.91204,124.019921 1188.84362,189.785103 1179.29356,209.970456 C1194.05274,187.831682 1222.91996,168.297469 1222.91996,168.297469 L1230.9507,169.165656 C1199.26186,192.606711 1175.82081,231.023995 1174.51853,228.853527 L1160.62753,205.629519 L1198.39368,138.996151 C1199.04482,137.910917 1199.47891,136.608636 1199.69596,135.306355 L1199.47891,135.089308 C1185.58791,146.592789 1173.43329,160.049691 1164.75142,170.25089 L1157.15478,183.707792 L1131.97735,228.853527 L1121.55911,209.536362 Z M1240.50076,195.645366 C1253.52356,172.638405 1266.76342,150.065538 1279.13509,126.84153 C1286.51468,129.880185 1294.54541,130.097232 1301.70795,124.454015 C1302.57614,123.802874 1301.27386,125.322202 1300.83977,125.973342 C1285.42944,152.236006 1258.08155,200.85449 1245.27579,226.031919 L1225.09043,264.66625 C1211.63353,274.433356 1198.17663,284.634556 1188.40952,294.401662 L1169.09236,258.371893 L1170.82873,255.550284 C1175.60376,247.302506 1169.3094,243.178617 1169.3094,243.178617 C1188.84362,244.263851 1202.30052,236.667212 1202.30052,236.667212 L1186.02201,265.968531 L1193.4016,280.94476 L1233.33821,208.885222 C1220.09836,219.737562 1214.23809,232.76037 1212.06762,229.070574 L1197.95958,205.846566 L1235.94277,139.430244 C1240.93485,130.965419 1234.85754,127.058577 1234.85754,127.058577 C1254.39175,128.143811 1267.41456,120.547172 1267.41456,120.547172 L1216.40856,210.838643 C1224.0052,203.242005 1232.47002,198.466975 1240.50076,195.645366 Z" id="path-1"></path>
        <filter x="-2.7%" y="-14.8%" width="105.1%" height="127.1%" filterUnits="objectBoundingBox" id="filter-2">
            <feMorphology radius="2" operator="dilate" in="SourceAlpha" result="shadowSpreadOuter1"></feMorphology>
            <feOffset dx="0" dy="0" in="shadowSpreadOuter1" result="shadowOffsetOuter1"></feOffset>
            <feGaussianBlur stdDeviation="8" in="shadowOffsetOuter1" result="shadowBlurOuter1"></feGaussianBlur>
            <feColorMatrix values="0 0 0 0 0   0 0 0 0 0   0 0 0 0 0  0 0 0 0.5 0" type="matrix" in="shadowBlurOuter1"></feColorMatrix>
        </filter>
    </defs>
    <g id="Background" stroke="none" stroke-width="1" fill="none" fill-rule="evenodd">
        <g id="seven" fill-rule="nonzero">
            <g id="mr-darcy-murphy">
                <use fill="black" fill-opacity="1" filter="url(#filter-2)" xlink:href="#path-1"></use>
                <use fill="#FFFFFF" xlink:href="#path-1"></use>
            </g>
        </g>
    </g>
</svg>